<svg width="136" height="25" viewBox="0 0 136 25" fill="#000000" xmlns="http://www.w3.org/2000/svg">
<path d="M40.1183 17.5859V15.3083H43.1475V17.2215C43.1475 19.2257 42.2061 20.2279 40.3233 20.2279H37.4536C35.5708 20.2279 34.6294 19.2257 34.6294 17.2215V8.0429C34.6294 6.03865 35.5708 5.03652 37.4536 5.03652H40.3233C42.2061 5.03652 43.1475 6.03865 43.1475 8.0429V9.43222H40.1183V7.65572C40.1183 7.53425 40.0728 7.42796 39.9817 7.33686C39.9057 7.24576 39.807 7.20021 39.6856 7.20021H38.2507C38.1292 7.20021 38.023 7.24576 37.9319 7.33686C37.8559 7.42796 37.818 7.53425 37.818 7.65572V17.5859C37.818 17.7074 37.8559 17.8137 37.9319 17.9048C38.023 17.9959 38.1292 18.0414 38.2507 18.0414H39.6856C39.807 18.0414 39.9057 17.9959 39.9817 17.9048C40.0728 17.8137 40.1183 17.7074 40.1183 17.5859ZM49.6843 8.65785H50.2764V11.6187H48.7732C48.257 11.6187 47.9989 11.8844 47.9989 12.4158V20.0001H44.9469V8.8856H47.7256V9.95606C48.1659 9.09059 48.8188 8.65785 49.6843 8.65785ZM56.8118 8.8856H59.8637V20.8428C59.8637 22.8471 58.9223 23.8492 57.0396 23.8492H54.762C52.8792 23.8492 51.9378 22.8471 51.9378 20.8428V20.4784H54.8986V21.2072C54.8986 21.3287 54.9366 21.435 55.0125 21.5261C55.1036 21.6172 55.2099 21.6627 55.3314 21.6627H56.3791C56.5005 21.6627 56.5992 21.6172 56.6751 21.5261C56.7662 21.435 56.8118 21.3287 56.8118 21.2072V18.9524C56.3563 19.3169 55.7338 19.4991 54.9442 19.4991H54.4659C52.5831 19.4991 51.6417 18.4969 51.6417 16.4927V8.8856H54.6937V16.8571C54.6937 16.9786 54.7316 17.0848 54.8075 17.1759C54.8986 17.267 55.0049 17.3126 55.1264 17.3126H56.3791C56.5005 17.3126 56.5992 17.267 56.6751 17.1759C56.7662 17.0848 56.8118 16.9786 56.8118 16.8571V8.8856ZM67.3375 20.2279H66.8592C66.0849 20.2279 65.4623 20.0457 64.9916 19.6813V23.6215H61.9397V8.8856H64.5133V9.70553C64.984 9.00707 65.766 8.65785 66.8592 8.65785H67.3375C69.2203 8.65785 70.1617 9.65998 70.1617 11.6642V17.2215C70.1617 19.2257 69.2203 20.2279 67.3375 20.2279ZM64.9916 11.2998V17.5859C64.9916 17.7074 65.0296 17.8137 65.1055 17.9048C65.1966 17.9959 65.3029 18.0414 65.4244 18.0414H66.677C66.7985 18.0414 66.8972 17.9959 66.9731 17.9048C67.0642 17.8137 67.1098 17.7074 67.1098 17.5859V11.2998C67.1098 11.1784 67.0642 11.0721 66.9731 10.981C66.8972 10.8899 66.7985 10.8443 66.677 10.8443H65.4244C65.3029 10.8443 65.1966 10.8899 65.1055 10.981C65.0296 11.0721 64.9916 11.1784 64.9916 11.2998ZM76.2917 18.2464H77.2028V20.2279H75.0619C73.1791 20.2279 72.2377 19.2257 72.2377 17.2215V6.47139H75.2896V8.8856H77.2028V11.0948H75.2896V17.1532C75.2896 17.5783 75.3731 17.8668 75.5401 18.0186C75.7072 18.1705 75.9577 18.2464 76.2917 18.2464ZM87.021 11.6642V17.2215C87.021 19.2257 86.0796 20.2279 84.1968 20.2279H81.6232C79.7404 20.2279 78.799 19.2257 78.799 17.2215V11.6642C78.799 9.65998 79.7404 8.65785 81.6232 8.65785H84.1968C86.0796 8.65785 87.021 9.65998 87.021 11.6642ZM83.9691 17.8592V11.0037C83.9691 10.8823 83.9235 10.776 83.8324 10.6849C83.7565 10.5938 83.6578 10.5482 83.5364 10.5482H82.2837C82.1622 10.5482 82.0559 10.5938 81.9648 10.6849C81.8889 10.776 81.851 10.8823 81.851 11.0037V17.8592C81.851 17.9807 81.8889 18.087 81.9648 18.1781C82.0559 18.2692 82.1622 18.3147 82.2837 18.3147H83.5364C83.6578 18.3147 83.7565 18.2692 83.8324 18.1781C83.9235 18.087 83.9691 17.9807 83.9691 17.8592Z" class="svg-path"/>
<path d="M94.6543 5.26428H97.4784L99.1866 16.356L100.462 5.26428H103.56L101.168 20.0001H97.5468L96.0663 10.9582L94.5859 20.0001H90.9646L88.5732 5.26428H91.6706L92.9461 16.356L94.6543 5.26428ZM110.848 8.8856H113.422V20.0001H110.848V19.1802C110.378 19.8787 109.596 20.2279 108.503 20.2279H108.024C106.141 20.2279 105.2 19.2257 105.2 17.2215V11.6642C105.2 9.65998 106.141 8.65785 108.024 8.65785H108.503C109.596 8.65785 110.378 9.00707 110.848 9.70553V8.8856ZM110.37 17.5859V11.2998C110.37 11.1784 110.325 11.0721 110.234 10.981C110.158 10.8899 110.059 10.8443 109.937 10.8443H108.685C108.563 10.8443 108.457 10.8899 108.366 10.981C108.29 11.0721 108.252 11.1784 108.252 11.2998V17.5859C108.252 17.7074 108.29 17.8137 108.366 17.9048C108.457 17.9959 108.563 18.0414 108.685 18.0414H109.937C110.059 18.0414 110.158 17.9959 110.234 17.9048C110.325 17.8137 110.37 17.7074 110.37 17.5859ZM120.668 8.8856H123.72V20.8428C123.72 22.8471 122.779 23.8492 120.896 23.8492H118.618C116.736 23.8492 115.794 22.8471 115.794 20.8428V20.4784H118.755V21.2072C118.755 21.3287 118.793 21.435 118.869 21.5261C118.96 21.6172 119.066 21.6627 119.188 21.6627H120.235C120.357 21.6627 120.456 21.6172 120.531 21.5261C120.623 21.435 120.668 21.3287 120.668 21.2072V18.9524C120.213 19.3169 119.59 19.4991 118.801 19.4991H118.322C116.439 19.4991 115.498 18.4969 115.498 16.4927V8.8856H118.55V16.8571C118.55 16.9786 118.588 17.0848 118.664 17.1759C118.755 17.267 118.861 17.3126 118.983 17.3126H120.235C120.357 17.3126 120.456 17.267 120.531 17.1759C120.623 17.0848 120.668 16.9786 120.668 16.8571V8.8856ZM131.034 13.0308C132.917 13.0308 133.859 14.0329 133.859 16.0372V17.2215C133.859 19.2257 132.917 20.2279 131.034 20.2279H128.506C126.624 20.2279 125.682 19.2257 125.682 17.2215V16.5154H128.506V17.5176C128.506 17.639 128.544 17.7453 128.62 17.8364C128.711 17.9275 128.818 17.9731 128.939 17.9731H130.807C130.928 17.9731 131.027 17.9275 131.103 17.8364C131.194 17.7453 131.239 17.639 131.239 17.5176V16.151C131.239 16.0296 131.194 15.9233 131.103 15.8322C131.027 15.7411 130.928 15.6955 130.807 15.6955H128.461C126.578 15.6955 125.637 14.6934 125.637 12.6891V11.6642C125.637 9.65998 126.578 8.65785 128.461 8.65785H130.852C132.735 8.65785 133.676 9.65998 133.676 11.6642V12.0742H130.852V11.3682C130.852 11.2467 130.807 11.1404 130.716 11.0493C130.64 10.9582 130.541 10.9126 130.419 10.9126H128.689C128.567 10.9126 128.461 10.9582 128.37 11.0493C128.294 11.1404 128.256 11.2467 128.256 11.3682V12.5753C128.256 12.6967 128.294 12.803 128.37 12.8941C128.461 12.9852 128.567 13.0308 128.689 13.0308H131.034Z" fill="#00BC13"/>
<path d="M-2.74854e-07 18.1387C-2.30763e-07 19.1473 0.544812 20.0773 1.42466 20.5706L7.66773 24.0705C8.51745 24.5468 9.55417 24.5452 10.4023 24.066L16.5938 20.5686C17.4692 20.0741 18.0106 19.1465 18.0106 18.1411L18.0106 11.2514C18.0106 11.0481 17.9182 10.8558 17.7594 10.7289L16.3378 9.59151L14.9161 10.7289C14.7574 10.8558 14.665 11.0481 14.665 11.2514L14.665 17.8157L9.03005 20.9987L3.34562 17.812L3.34562 11.2514C3.34562 11.0481 3.25322 10.8558 3.09449 10.7289L1.67281 9.59151L0.251126 10.7289C0.092399 10.8558 -5.84792e-07 11.0481 -5.75907e-07 11.2514L-2.74854e-07 18.1387Z" fill="#00BC13"/>
<path d="M25.3715 7.68001C25.3715 6.67134 24.8266 5.74132 23.9468 5.24808L17.7037 1.74817C16.854 1.27182 15.8173 1.2735 14.9691 1.75262L8.77765 5.25009C7.90224 5.7446 7.36089 6.67215 7.36089 7.67758L7.36089 14.5197C7.36089 14.7183 7.4491 14.9067 7.60165 15.0338L9.0337 16.2272L10.4657 15.0338C10.6183 14.9067 10.7065 14.7183 10.7065 14.5197L10.7065 8.00301L16.3414 4.81993L22.0258 8.00666L22.0258 14.5197C22.0258 14.7183 22.1141 14.9067 22.2666 15.0338L23.6987 16.2272L25.1307 15.0338C25.2833 14.9067 25.3715 14.7183 25.3715 14.5197L25.3715 7.68001Z" class="svg-path"/>
</svg>
